<svg width="97" height="60" viewBox="0 0 97 60" fill="none" xmlns="http://www.w3.org/2000/svg">
<path d="M13.2751 33.4471C14.6073 33.6842 15.7374 34.3835 16.6652 35.545C17.593 36.7066 18.0569 38.0222 18.0569 39.4919C18.0569 40.7483 17.7239 41.8861 17.0577 42.9055C16.4154 43.9011 15.4757 44.6952 14.2386 45.2878C13.0015 45.8568 11.5622 46.1412 9.92061 46.1412H0V21.4286H9.4567C11.1458 21.4286 12.597 21.7131 13.8104 22.282C15.0237 22.8509 15.9396 23.6214 16.5581 24.5933C17.1767 25.5415 17.486 26.6082 17.486 27.7935C17.486 29.2158 17.1053 30.401 16.344 31.3492C15.5827 32.2974 14.5598 32.9967 13.2751 33.4471ZM4.06817 31.8115H9.09984C10.4321 31.8115 11.467 31.5152 12.2045 30.9225C12.9658 30.3062 13.3464 29.4291 13.3464 28.2913C13.3464 27.1771 12.9658 26.3119 12.2045 25.6956C11.467 25.0555 10.4321 24.7355 9.09984 24.7355H4.06817V31.8115ZM9.56376 42.8343C10.9436 42.8343 12.0261 42.5025 12.8112 41.8387C13.5962 41.175 13.9888 40.2505 13.9888 39.0652C13.9888 37.8563 13.5724 36.8962 12.7398 36.1851C11.9071 35.4739 10.8009 35.1183 9.42101 35.1183H4.06817V42.8343H9.56376Z" fill="black"/>
<path d="M61.6142 46.3901C59.3065 46.3901 57.1773 45.8568 55.2265 44.79C53.2995 43.6996 51.765 42.1943 50.623 40.2742C49.5049 38.3304 48.9458 36.1495 48.9458 33.7316C48.9458 31.3137 49.5049 29.1446 50.623 27.2245C51.765 25.3044 53.2995 23.811 55.2265 22.7443C57.1773 21.6538 59.3065 21.1086 61.6142 21.1086C63.9457 21.1086 66.0749 21.6538 68.002 22.7443C69.9528 23.811 71.4873 25.3044 72.6054 27.2245C73.7236 29.1446 74.2826 31.3137 74.2826 33.7316C74.2826 36.1495 73.7236 38.3304 72.6054 40.2742C71.4873 42.1943 69.9528 43.6996 68.002 44.79C66.0749 45.8568 63.9457 46.3901 61.6142 46.3901ZM61.6142 42.8699C63.2558 42.8699 64.7189 42.5025 66.0036 41.7676C67.2882 41.0091 68.2874 39.9423 69.0012 38.5674C69.7387 37.1688 70.1074 35.5569 70.1074 33.7316C70.1074 31.9063 69.7387 30.3062 69.0012 28.9313C68.2874 27.5564 67.2882 26.5015 66.0036 25.7667C64.7189 25.0318 63.2558 24.6644 61.6142 24.6644C59.9727 24.6644 58.5096 25.0318 57.2249 25.7667C55.9402 26.5015 54.9291 27.5564 54.1916 28.9313C53.4779 30.3062 53.121 31.9063 53.121 33.7316C53.121 35.5569 53.4779 37.1688 54.1916 38.5674C54.9291 39.9423 55.9402 41.0091 57.2249 41.7676C58.5096 42.5025 59.9727 42.8699 61.6142 42.8699Z" fill="black"/>
<path d="M81.6908 21.4286V37.1807C81.6908 39.0534 82.1786 40.4638 83.154 41.412C84.1532 42.3602 85.533 42.8343 87.2935 42.8343C89.0778 42.8343 90.4576 42.3602 91.433 41.412C92.4322 40.4638 92.9318 39.0534 92.9318 37.1807V21.4286H97V37.1096C97 39.1245 96.5599 40.8313 95.6796 42.2299C94.7994 43.6285 93.6218 44.6715 92.1468 45.3589C90.6718 46.0464 89.0421 46.3901 87.2578 46.3901C85.4735 46.3901 83.8439 46.0464 82.3689 45.3589C80.9177 44.6715 79.7638 43.6285 78.9074 42.2299C78.0509 40.8313 77.6227 39.1245 77.6227 37.1096V21.4286H81.6908Z" fill="black"/>
<path d="M39.6721 32.4535L37.6065 35.5813L26.0774 17.6247H29.879L39.6721 32.4535Z" fill="black"/>
<path d="M21.4224 17.6247H24.2779C24.2779 17.6247 23.7977 21.4905 20.9422 23.2778C20.8351 23.3441 20.6963 23.3441 20.5892 23.2807C20.5256 23.2432 20.4562 23.1999 20.3867 23.1596C20.2334 23.0645 20.1842 22.8684 20.2797 22.7185C20.6847 22.0872 21.6105 20.3086 21.4224 17.6247Z" fill="black"/>
<path d="M88.8318 2.28575C86.6128 1.9427 84.3851 1.68614 82.1545 1.5766C79.9239 1.49012 77.6962 1.55065 75.4975 1.8101C73.2987 2.07243 71.1289 2.52501 69.0401 3.2111C66.9512 3.89143 64.9434 4.80525 63.0513 5.90934C59.2527 8.11174 55.9922 11.1559 53.1425 14.5345C50.287 17.9245 47.8539 21.6807 45.5365 25.5177C43.2191 29.3603 41.0724 33.3327 38.7608 37.2475C37.6065 39.2048 36.4203 41.1507 35.1589 43.0619C33.8917 44.9703 32.5406 46.8325 31.0681 48.617C29.5984 50.4014 27.9869 52.0878 26.2076 53.607C24.4342 55.129 22.464 56.4436 20.3491 57.4756C18.24 58.5134 15.9747 59.2369 13.6718 59.6347C11.366 60.0268 9.0226 60.0844 6.72258 59.8971C6.40434 59.8711 6.1671 59.5915 6.19314 59.2744C6.21918 58.9717 6.47377 58.744 6.77176 58.744H6.77755C9.00524 58.7584 11.2214 58.5624 13.3623 58.0781C15.506 57.5995 17.5602 56.8183 19.4812 55.7921C19.7184 55.6623 19.9643 55.5384 20.1987 55.4L20.893 54.9705C21.3646 54.6966 21.8014 54.368 22.2499 54.0595C22.6983 53.7511 23.1207 53.3994 23.5547 53.0737C23.9742 52.7248 24.3908 52.3703 24.8016 52.0099C26.4275 50.5426 27.903 48.9023 29.2859 47.1785C30.6659 45.4517 31.936 43.6241 33.1511 41.7532C34.3691 39.8852 35.5263 37.9653 36.6575 36.0223C38.917 32.1364 41.1158 28.1784 43.4708 24.281C45.8258 20.3864 48.3862 16.5639 51.3979 13.0585C54.3981 9.55599 57.9334 6.41093 62.0243 4.12781C66.1093 1.84757 70.6978 0.486927 75.321 0.135234C77.6326 -0.0550264 79.9471 -0.0348473 82.2413 0.135234C84.5355 0.316846 86.8037 0.697365 89.043 1.15284C89.3554 1.21626 89.558 1.52183 89.4943 1.83316C89.4336 2.13585 89.1442 2.33476 88.8405 2.28863L88.8318 2.28575Z" fill="black"/>
</svg>
