<svg width="1280" height="792" viewBox="0 0 1280 792" fill="none" xmlns="http://www.w3.org/2000/svg">
<path d="M175.176 441.502C192.757 444.631 207.668 453.862 219.912 469.194C232.155 484.527 238.277 501.893 238.277 521.293C238.277 537.877 233.882 552.897 225.092 566.352C216.616 579.494 204.215 589.977 187.891 597.799C171.566 605.309 152.573 609.064 130.911 609.064H0V282.858H124.789C147.079 282.858 166.229 286.613 182.24 294.123C198.25 301.632 210.337 311.802 218.499 324.631C226.662 337.147 230.743 351.228 230.743 366.874C230.743 385.648 225.72 401.293 215.674 413.81C205.628 426.326 192.129 435.557 175.176 441.502ZM53.683 419.911H120.08C137.661 419.911 151.317 416 161.049 408.177C171.095 400.042 176.118 388.464 176.118 373.445C176.118 358.738 171.095 347.317 161.049 339.181C151.317 330.733 137.661 326.509 120.08 326.509H53.683V419.911ZM126.202 565.413C144.41 565.413 158.695 561.033 169.054 552.271C179.414 543.51 184.594 531.306 184.594 515.661C184.594 499.703 179.1 487.03 168.113 477.643C157.125 468.256 142.527 463.562 124.319 463.562H53.683V565.413H126.202Z" fill="url(#paint0_linear_2250_510)"/>
<path d="M813.054 612.35C782.602 612.35 754.505 605.309 728.762 591.228C703.333 576.834 683.084 556.965 668.015 531.619C653.26 505.961 645.883 477.173 645.883 445.257C645.883 413.34 653.26 384.709 668.015 359.364C683.084 334.018 703.333 314.305 728.762 300.224C754.505 285.831 782.602 278.634 813.054 278.634C843.819 278.634 871.917 285.831 897.345 300.224C923.088 314.305 943.337 334.018 958.092 359.364C972.847 384.709 980.224 413.34 980.224 445.257C980.224 477.173 972.847 505.961 958.092 531.619C943.337 556.965 923.088 576.834 897.345 591.228C871.917 605.309 843.819 612.35 813.054 612.35ZM813.054 565.883C834.715 565.883 854.022 561.033 870.975 551.332C887.927 541.319 901.113 527.239 910.531 509.09C920.263 490.628 925.129 469.351 925.129 445.257C925.129 421.163 920.263 400.042 910.531 381.893C901.113 363.745 887.927 349.82 870.975 340.12C854.022 330.42 834.715 325.57 813.054 325.57C791.392 325.57 772.085 330.42 755.132 340.12C738.18 349.82 724.838 363.745 715.106 381.893C705.688 400.042 700.979 421.163 700.979 445.257C700.979 469.351 705.688 490.628 715.106 509.09C724.838 527.239 738.18 541.319 755.132 551.332C772.085 561.033 791.392 565.883 813.054 565.883Z" fill="url(#paint1_linear_2250_510)"/>
<path d="M1077.98 282.858V490.785C1077.98 515.505 1084.42 534.123 1097.29 546.639C1110.47 559.155 1128.68 565.413 1151.91 565.413C1175.46 565.413 1193.67 559.155 1206.54 546.639C1219.72 534.123 1226.32 515.505 1226.32 490.785V282.858H1280V489.846C1280 516.443 1274.19 538.973 1262.58 557.434C1250.96 575.896 1235.42 589.664 1215.96 598.738C1196.49 607.812 1174.99 612.35 1151.44 612.35C1127.9 612.35 1106.39 607.812 1086.93 598.738C1067.78 589.664 1052.55 575.896 1041.25 557.434C1029.95 538.973 1024.3 516.443 1024.3 489.846V282.858H1077.98Z" fill="url(#paint2_linear_2250_510)"/>
<path d="M516.619 418.294L491.546 462L344.115 232.647H394.279L516.619 418.294Z" fill="url(#paint3_linear_2250_510)"/>
<path d="M282.688 232.647H320.369C320.369 232.647 314.031 283.674 276.351 307.267C274.938 308.142 273.105 308.142 271.693 307.305C270.853 306.81 269.937 306.239 269.021 305.706C266.997 304.451 266.348 301.863 267.608 299.885C272.953 291.551 285.169 268.073 282.688 232.647Z" fill="url(#paint4_linear_2250_510)"/>
<path d="M1172.21 30.1719C1142.93 25.6437 1113.54 22.2571 1084.1 20.8111C1054.67 19.6695 1025.27 20.4686 996.255 23.8933C967.241 27.356 938.608 33.3302 911.044 42.3866C883.48 51.3669 856.985 63.4293 832.018 78.0033C781.891 107.075 738.866 147.258 701.261 191.855C663.58 236.604 631.473 286.186 600.894 336.833C570.314 387.556 541.987 439.992 511.483 491.667C496.25 517.504 480.598 543.189 463.953 568.418C447.231 593.608 429.402 618.19 409.97 641.744C390.576 665.298 369.312 687.558 345.833 707.612C322.43 727.703 296.432 745.055 268.524 758.678C240.693 772.376 210.801 781.927 180.412 787.179C149.985 792.354 119.061 793.115 88.7103 790.641C84.5109 790.299 81.3803 786.608 81.7239 782.422C82.0675 778.427 85.4271 775.421 89.3593 775.421H89.4357C118.832 775.611 148.076 773.023 176.327 766.631C204.616 760.314 231.722 750.002 257.071 736.455C260.202 734.743 263.447 733.107 266.539 731.28L275.702 725.61C281.924 721.995 287.689 717.658 293.607 713.586C299.524 709.514 305.098 704.872 310.824 700.572C316.36 695.968 321.858 691.287 327.279 686.531C348.734 667.162 368.205 645.511 386.453 622.756C404.664 599.963 421.423 575.838 437.458 551.142C453.53 526.484 468.801 501.142 483.728 475.495C513.545 424.2 542.559 371.955 573.635 320.509C604.711 269.1 638.498 218.644 678.24 172.372C717.83 126.139 764.482 84.6243 818.465 54.4871C872.371 24.3879 932.92 6.42743 993.926 1.78508C1024.43 -0.726349 1054.97 -0.459984 1085.25 1.78508C1115.52 4.18236 1145.45 9.20522 1175 15.2174C1179.12 16.0546 1181.8 20.0881 1180.96 24.1977C1180.15 28.1932 1176.34 30.8188 1172.33 30.2099L1172.21 30.1719Z" fill="url(#paint5_linear_2250_510)"/>
<defs>
<linearGradient id="paint0_linear_2250_510" x1="640" y1="0" x2="640" y2="792" gradientUnits="userSpaceOnUse">
<stop stop-color="white" stop-opacity="0.1"/>
<stop offset="0.5" stop-color="white" stop-opacity="0.25"/>
<stop offset="1" stop-color="white" stop-opacity="0.6"/>
</linearGradient>
<linearGradient id="paint1_linear_2250_510" x1="640" y1="0" x2="640" y2="792" gradientUnits="userSpaceOnUse">
<stop stop-color="white" stop-opacity="0.1"/>
<stop offset="0.5" stop-color="white" stop-opacity="0.25"/>
<stop offset="1" stop-color="white" stop-opacity="0.6"/>
</linearGradient>
<linearGradient id="paint2_linear_2250_510" x1="640" y1="0" x2="640" y2="792" gradientUnits="userSpaceOnUse">
<stop stop-color="white" stop-opacity="0.1"/>
<stop offset="0.5" stop-color="white" stop-opacity="0.25"/>
<stop offset="1" stop-color="white" stop-opacity="0.6"/>
</linearGradient>
<linearGradient id="paint3_linear_2250_510" x1="640" y1="0" x2="640" y2="792" gradientUnits="userSpaceOnUse">
<stop stop-color="white" stop-opacity="0.1"/>
<stop offset="0.5" stop-color="white" stop-opacity="0.25"/>
<stop offset="1" stop-color="white" stop-opacity="0.6"/>
</linearGradient>
<linearGradient id="paint4_linear_2250_510" x1="640" y1="0" x2="640" y2="792" gradientUnits="userSpaceOnUse">
<stop stop-color="white" stop-opacity="0.1"/>
<stop offset="0.5" stop-color="white" stop-opacity="0.25"/>
<stop offset="1" stop-color="white" stop-opacity="0.6"/>
</linearGradient>
<linearGradient id="paint5_linear_2250_510" x1="640" y1="0" x2="640" y2="792" gradientUnits="userSpaceOnUse">
<stop stop-color="white" stop-opacity="0.1"/>
<stop offset="0.5" stop-color="white" stop-opacity="0.25"/>
<stop offset="1" stop-color="white" stop-opacity="0.6"/>
</linearGradient>
</defs>
</svg>
